<svg width="32" height="32" viewBox="0 0 32 32" fill="none" xmlns="http://www.w3.org/2000/svg">
  <rect width="32" height="32" rx="6" fill="url(#gradient)"/>
  <!-- Corpo do cadeado -->
  <path d="M9 16V22H23V16H9ZM16 18C16.73 18 17.33 18.6 17.33 19.33C17.33 20.07 16.73 20.67 16 20.67C15.27 20.67 14.67 20.07 14.67 19.33C14.67 18.6 15.27 18 16 18Z" fill="white"/>
  <!-- Arco do cadeado -->
  <path d="M16 9C12.69 9 10 11.69 10 15V16H12V15C12 12.79 13.79 11 16 11C18.21 11 20 12.79 20 15V16H22V15C22 11.69 19.31 9 16 9Z" fill="white"/>
  <defs>
    <linearGradient id="gradient" x1="0" y1="0" x2="32" y2="32" gradientUnits="userSpaceOnUse">
      <stop stop-color="#A855F7"/>
      <stop offset="1" stop-color="#D946EF"/>
    </linearGradient>
  </defs>
</svg>
